<svg width="25" height="25" viewBox="0 0 25 25" fill="none" xmlns="http://www.w3.org/2000/svg" data-v-d4dba1b1=""><path d="M4.37444 12.7332C3.42644 11.0812 2.96844 9.73117 2.69244 8.36317C2.28444 6.33917 3.21844 4.36217 4.76544 3.10017C5.41944 2.56718 6.16944 2.75017 6.55644 3.44317L7.42944 5.01017C8.12144 6.25217 8.46744 6.87217 8.39944 7.53017C8.33044 8.18917 7.86344 8.72517 6.93044 9.79717L4.37444 12.7332ZM4.37444 12.7332C6.29344 16.0792 9.30444 19.0932 12.6544 21.0132M12.6544 21.0132C14.3074 21.9612 15.6564 22.4192 17.0244 22.6952C19.0484 23.1032 21.0254 22.1692 22.2864 20.6222C22.8204 19.9682 22.6374 19.2182 21.9444 18.8312L20.3774 17.9582C19.1354 17.2662 18.5154 16.9202 17.8574 16.9882C17.1984 17.0572 16.6624 17.5242 15.5904 18.4572L12.6544 21.0132ZM14.5964 3.79118V6.59118M19.5464 5.84118L17.5664 7.82118M21.5964 10.7912H18.7964" stroke="#2077D8" stroke-width="1.5" stroke-linecap="round" stroke-linejoin="round" data-v-d4dba1b1=""></path></svg>