<svg
                  width="40"
                  height="40"
                  viewBox="0 0 40 40"
                  fill="none"
                  xmlns="http://www.w3.org/2000/svg"
                  className="border rounded-full"
                >
                  <path
                    fillRule="evenodd"
                    clipRule="evenodd"
                    d="M21.1452 20.0004L27.9852 13.1604C28.3119 12.8354 28.3119 12.307 27.9852 11.982C27.6602 11.657 27.1336 11.657 26.8069 11.982L20.0002 18.787L13.1936 11.982C12.8686 11.657 12.3419 11.657 12.0152 11.982C11.6902 12.307 11.6902 12.8354 12.0152 13.1604L18.8569 20.0004L12.0152 26.8404C11.6902 27.167 11.6902 27.6937 12.0152 28.0204C12.1786 28.182 12.3919 28.2637 12.6052 28.2637C12.8186 28.2637 13.0319 28.182 13.1936 28.0204L20.0002 21.2137L26.8069 28.0204C26.9702 28.182 27.1836 28.2637 27.3969 28.2637C27.6102 28.2637 27.8236 28.182 27.9852 28.0204C28.3119 27.6937 28.3119 27.167 27.9852 26.8404L21.1452 20.0004Z"
                    fill="white"
                  ></path>
                </svg>